<?xml version="1.0" encoding="UTF-8" standalone="no"?>
<svg width="22px" height="24px" viewBox="0 0 22 24" version="1.1" xmlns="http://www.w3.org/2000/svg" xmlns:xlink="http://www.w3.org/1999/xlink">
    <!-- Generator: sketchtool 3.8.1 (29687) - http://www.bohemiancoding.com/sketch -->
    <title>6721E0DB-A79A-400E-B00B-EA9552203D98</title>
    <desc>Created with sketchtool.</desc>
    <defs></defs>
    <g id="Page-1" stroke="none" stroke-width="1" fill="none" fill-rule="evenodd">
        <g id="4" transform="translate(-1039.000000, -15.000000)" fill="#FFFFFF">
            <g id="Header">
                <path d="M1059.93446,34.7633455 C1057.901,32.7425455 1056.87031,30.3508364 1056.87031,27.6545455 L1056.87031,23.7298909 C1056.88908,20.7377455 1054.877,18.7531636 1053.14813,17.9629091 C1052.65286,17.7364364 1052.14231,17.5618909 1051.62348,17.4322909 L1051.62348,17.1818182 C1051.62348,15.9787636 1050.64471,15 1049.44166,15 C1048.2386,15 1047.25984,15.9787636 1047.25984,17.1818182 L1047.25984,17.4702545 C1046.79249,17.5963636 1046.333,17.7608727 1045.88704,17.9668364 C1043.9762,18.8474182 1042.04049,20.9698909 1042.02304,23.7272727 L1042.02304,27.6545455 C1042.02304,30.4420364 1041.0386,32.8337455 1039.09722,34.7633455 C1038.98159,34.8785455 1038.93969,35.0482909 1038.98857,35.2040727 C1039.03744,35.3598545 1039.16966,35.4750545 1039.33068,35.5029818 L1043.4722,36.2181818 C1044.24369,36.3512727 1044.95409,36.4603636 1045.63002,36.5502545 C1046.39191,38.0426182 1047.88733,39 1049.52108,39 C1051.15526,39 1052.65111,38.0417455 1053.41213,36.5485091 C1054.08544,36.4590545 1054.79235,36.3504 1055.55948,36.2177455 L1059.70057,35.5025455 C1059.86159,35.4750545 1059.99337,35.3594182 1060.04268,35.2036364 C1060.09199,35.0482909 1060.05009,34.8785455 1059.93446,34.7633455 L1059.93446,34.7633455 Z M1048.13213,17.1818182 C1048.13213,16.4600727 1048.71948,15.8727273 1049.44122,15.8727273 C1050.16297,15.8727273 1050.75031,16.4600727 1050.75031,17.1818182 L1050.75031,17.2612364 C1049.88064,17.1364364 1048.99831,17.1416727 1048.13213,17.2817455 L1048.13213,17.1818182 L1048.13213,17.1818182 Z M1049.52108,38.1272727 C1048.4162,38.1272727 1047.38377,37.5783273 1046.72093,36.6807273 C1047.6962,36.7810909 1048.60646,36.8317091 1049.51628,36.8317091 C1050.42959,36.8317091 1051.34289,36.7810909 1052.32209,36.6794182 C1051.65882,37.5778909 1050.62595,38.1272727 1049.52108,38.1272727 L1049.52108,38.1272727 Z M1055.41111,35.3576727 C1054.57373,35.5021091 1053.80617,35.6194909 1053.08093,35.712 L1053.07831,35.712 C1052.75889,35.7525818 1052.4482,35.7879273 1052.14406,35.8184727 C1052.141,35.8189091 1052.13751,35.8189091 1052.13446,35.8193455 C1051.85649,35.8472727 1051.58464,35.8695273 1051.31584,35.8891636 C1051.26479,35.8930909 1051.21417,35.8961455 1051.16311,35.8996364 C1050.93009,35.9149091 1050.69969,35.9271273 1050.4706,35.9358545 C1050.42348,35.9376 1050.37635,35.9402182 1050.32922,35.9415273 C1049.78639,35.9598545 1049.25097,35.9598545 1048.70857,35.9419636 C1048.66057,35.9402182 1048.61169,35.9380364 1048.56369,35.9358545 C1048.33766,35.9271273 1048.10988,35.9153455 1047.87991,35.9000727 C1047.8258,35.8965818 1047.77169,35.8930909 1047.71715,35.8891636 C1047.45533,35.8704 1047.19046,35.8481455 1046.91948,35.8215273 C1046.90988,35.8206545 1046.90071,35.8197818 1046.89155,35.8189091 C1046.58959,35.7888 1046.28108,35.7534545 1045.96384,35.7133091 L1045.95991,35.7133091 C1045.23206,35.6212364 1044.46188,35.5029818 1043.62057,35.3581091 L1040.27759,34.7803636 C1042.01562,32.7931636 1042.89577,30.4001455 1042.89577,27.6545455 L1042.89577,23.7298909 C1042.9106,21.3582545 1044.59235,19.5246545 1046.25184,18.7592727 C1046.74537,18.5319273 1047.25722,18.3621818 1047.7778,18.2430545 C1047.78217,18.2421818 1047.78697,18.2426182 1047.79133,18.2417455 C1048.86653,18 1050.01111,17.9890909 1051.09897,18.2120727 C1051.10464,18.2133818 1051.11031,18.2107636 1051.11599,18.2116364 C1051.685,18.3303273 1052.24529,18.5101091 1052.78508,18.7566545 C1054.39482,19.4928 1056.01242,21.3141818 1055.99715,23.7277091 L1055.99715,27.6549818 C1055.99715,30.2875636 1056.94624,32.7355636 1058.75191,34.7812364 L1055.41111,35.3576727 L1055.41111,35.3576727 Z" id="Shape"></path>
            </g>
        </g>
    </g>
</svg>